<svg width="80" height="80" viewBox="0 0 80 80" fill="none" xmlns="http://www.w3.org/2000/svg">
<path d="M29.0624 48.8H49.415L66.2 71.3253C66.2 71.3253 53.2786 79.9298 41.6925 79.9995C29.6892 80.0718 14.4 71.3253 14.4 71.3253L29.0624 48.8Z" fill="#F03131"/>
<path d="M41.2312 68.018C42.5249 68.018 43.5736 66.9693 43.5736 65.6757C43.5736 64.382 42.5249 63.3333 41.2312 63.3333C39.9376 63.3333 38.8889 64.382 38.8889 65.6757C38.8889 66.9693 39.9376 68.018 41.2312 68.018Z" fill="white"/>
<path d="M41.2312 74.6847C42.5249 74.6847 43.5736 73.636 43.5736 72.3424C43.5736 71.0487 42.5249 70 41.2312 70C39.9376 70 38.8889 71.0487 38.8889 72.3424C38.8889 73.636 39.9376 74.6847 41.2312 74.6847Z" fill="white"/>
<path d="M65.5256 39.2492C65.5256 59.0851 55.9009 59.5496 42.1021 59.5496C28.3032 59.5496 15.5556 59.0851 15.5556 39.2492C15.5556 19.4135 26.2011 14.4445 40 14.4445C53.7988 14.4445 65.5256 19.4135 65.5256 39.2492Z" fill="#ECB9A5"/>
<path d="M65.5256 39.2492C65.5256 59.0851 55.9009 59.5496 42.1021 59.5496C28.3032 59.5496 15.5556 59.0851 15.5556 39.2492C15.5556 19.4135 26.2011 14.4445 40 14.4445C53.7988 14.4445 65.5256 19.4135 65.5256 39.2492Z" fill="#ECB9A5"/>
<path d="M35.8559 51.6515C35.8559 51.6515 41.3213 54.7746 45.2252 51.6515" stroke="black" stroke-linecap="round"/>
<path d="M32.9129 43.6036C36.3626 43.6036 39.1592 40.807 39.1592 37.3573C39.1592 33.9076 36.3626 31.1111 32.9129 31.1111C29.4632 31.1111 26.6667 33.9076 26.6667 37.3573C26.6667 40.807 29.4632 43.6036 32.9129 43.6036Z" fill="white"/>
<path d="M46.9669 43.6036C50.4166 43.6036 53.2132 40.807 53.2132 37.3573C53.2132 33.9076 50.4166 31.1111 46.9669 31.1111C43.5172 31.1111 40.7207 33.9076 40.7207 37.3573C40.7207 40.807 43.5172 43.6036 46.9669 43.6036Z" fill="white"/>
<path d="M33.1231 40.6906C34.848 40.6906 36.2462 39.2924 36.2462 37.5675C36.2462 35.8427 34.848 34.4444 33.1231 34.4444C31.3983 34.4444 30 35.8427 30 37.5675C30 39.2924 31.3983 40.6906 33.1231 40.6906Z" fill="black"/>
<path d="M47.1772 40.6906C48.9021 40.6906 50.3003 39.2924 50.3003 37.5675C50.3003 35.8427 48.9021 34.4444 47.1772 34.4444C45.4524 34.4444 44.0541 35.8427 44.0541 37.5675C44.0541 39.2924 45.4524 40.6906 47.1772 40.6906Z" fill="black"/>
<path d="M44.7124 5.2C17.056 5.2 21.2913 16.5105 16 25.5423L37.4299 29.8L65.1882 26.0154C66.4999 25.0692 65.8776 5.2 44.7124 5.2Z" fill="#545353" stroke="#45B5A1"/>
<ellipse cx="41.5" cy="9" rx="8.5" ry="2" fill="#D9D9D9" fill-opacity="0.4"/>
</svg>
