<svg width="80" height="80" viewBox="0 0 80 80" fill="none" xmlns="http://www.w3.org/2000/svg">
<path d="M29.0691 48.8889H49.3693L64.3392 71.3217C64.3392 71.3217 53.223 78.7357 41.6667 78.8026C22.7431 78.9121 14.4445 70.4858 14.4445 70.4858L29.0691 48.8889Z" fill="#F03131"/>
<path d="M41.2313 69.4888C42.5249 69.4888 43.5736 68.3595 43.5736 66.9664C43.5736 65.5733 42.5249 64.4439 41.2313 64.4439C39.9376 64.4439 38.8889 65.5733 38.8889 66.9664C38.8889 68.3595 39.9376 69.4888 41.2313 69.4888Z" fill="white"/>
<path d="M41.2313 76.6682C42.5249 76.6682 43.5736 75.5388 43.5736 74.1457C43.5736 72.7526 42.5249 71.6233 41.2313 71.6233C39.9376 71.6233 38.8889 72.7526 38.8889 74.1457C38.8889 75.5388 39.9376 76.6682 41.2313 76.6682Z" fill="white"/>
<path d="M65.5256 39.2492C65.5256 59.0851 55.9009 59.5496 42.1021 59.5496C28.3032 59.5496 15.5555 59.0851 15.5555 39.2492C15.5555 19.4135 26.2011 14.4445 40 14.4445C53.7988 14.4445 65.5256 19.4135 65.5256 39.2492Z" fill="#ECB9A5"/>
<path d="M35.8559 51.6515C35.8559 51.6515 41.3213 54.7746 45.2252 51.6515" stroke="black" stroke-linecap="round"/>
<path d="M32.9129 43.6036C36.3626 43.6036 39.1591 40.8071 39.1591 37.3574C39.1591 33.9077 36.3626 31.1111 32.9129 31.1111C29.4632 31.1111 26.6666 33.9077 26.6666 37.3574C26.6666 40.8071 29.4632 43.6036 32.9129 43.6036Z" fill="white"/>
<path d="M46.9668 43.6036C50.4165 43.6036 53.2131 40.8071 53.2131 37.3574C53.2131 33.9077 50.4165 31.1111 46.9668 31.1111C43.5171 31.1111 40.7206 33.9077 40.7206 37.3574C40.7206 40.8071 43.5171 43.6036 46.9668 43.6036Z" fill="white"/>
<path d="M33.1231 40.6907C34.848 40.6907 36.2463 39.2925 36.2463 37.5676C36.2463 35.8428 34.848 34.4445 33.1231 34.4445C31.3983 34.4445 30 35.8428 30 37.5676C30 39.2925 31.3983 40.6907 33.1231 40.6907Z" fill="black"/>
<path d="M47.1772 40.6907C48.9021 40.6907 50.3003 39.2925 50.3003 37.5676C50.3003 35.8428 48.9021 34.4445 47.1772 34.4445C45.4524 34.4445 44.0541 35.8428 44.0541 37.5676C44.0541 39.2925 45.4524 40.6907 47.1772 40.6907Z" fill="black"/>
<path d="M65.0516 32.5C56.5516 23.5961 52.2026 22.5 39.5 22.5C26.7975 22.5 26 24.0961 15 32.5C15 24.2688 26.7975 9.00002 39.5 9.00002C52.2026 9.00002 65.0516 24.2688 65.0516 32.5Z" fill="#B9BC0E"/>
<path d="M33.9484 3L40.8002 5.11764L46.9996 3.63529C46.9996 3.63529 51.7663 3.52829 49.2835 7.23068C46.6139 11.2116 47.4898 7.23068 40.8002 7.23068C34.1107 7.23068 34.3939 10.771 31.6644 6.80715C29.3157 3.39617 33.9484 3 33.9484 3Z" fill="#FF3030"/>
<rect x="40" y="5.99998" width="1" height="5" fill="#6D6767"/>
</svg>
