<svg width="80" height="80" viewBox="0 0 80 80" fill="none" xmlns="http://www.w3.org/2000/svg">
<path d="M28.0233 48.7858L48.8396 48.8103L65.6 70.2C65.6 70.2 52.1 81.1 40.9049 79.499C28.0233 81.1 13.5 70.2 13.5 70.2L28.0233 48.7858Z" fill="#F03131"/>
<path d="M40.6585 67.7095C41.9816 67.7111 43.0554 66.6805 43.0569 65.4077C43.0584 64.1348 41.987 63.1017 40.6639 63.1001C39.3408 63.0986 38.267 64.1292 38.2655 65.402C38.264 66.6749 39.3354 67.708 40.6585 67.7095Z" fill="white"/>
<path d="M40.6507 74.2691C41.9738 74.2706 43.0476 73.2401 43.0491 71.9672C43.0507 70.6944 41.9793 69.6612 40.6562 69.6597C39.3331 69.6581 38.2592 70.6887 38.2577 71.9616C38.2562 73.2344 39.3276 74.2675 40.6507 74.2691Z" fill="white"/>
<path d="M60.6 40.7C60.6 42.5225 60.1775 47.3 62 47.3C64.2 48.6 67.2 42.5225 67.2 40.7C67.2 38.8775 65.7225 37.4 63.9 37.4C62.0775 37.4 60.6 38.8775 60.6 40.7Z" fill="#D9A28C"/>
<path d="M19.6 40.7C19.6 42.5225 20.0225 47.3 18.2 47.3C16 48.6 13 42.5225 13 40.7C13 38.8775 14.4775 37.4 16.3 37.4C18.1225 37.4 19.6 38.8775 19.6 40.7Z" fill="#D9A28C"/>
<ellipse cx="40.1" cy="38.3" rx="23.7" ry="22.7" fill="#ECB9A5"/>
<path d="M63.7 38.4095H65.8862L66.2 36.0667V32.4222L65.8862 28.7778L65.1538 25.9143L64.4215 23.7016L63.0615 22.4L61.2308 24.3524L59.4 26.3048L60.2369 30.0794L61.5969 33.073L62.7477 35.6111L63.7 38.4095Z" fill="#664D4D"/>
<path d="M59.4 26.3048C59.9858 26.9295 61.2482 30.6434 61.8062 32.4222L62.7477 35.6111M59.4 26.3048L61.2308 24.3524L63.0615 22.4L64.4215 23.7016L65.1538 25.9143L65.8862 28.7778M59.4 26.3048L60.2369 30.0794L61.5969 33.073L62.7477 35.6111M62.7477 35.6111L63.7 38.4095H65.8862L66.2 36.0667M66.2 36.0667V32.4222L65.8862 28.7778M66.2 36.0667L65.8862 28.7778" stroke="#664D4D"/>
<path d="M16.3 38.3L14.5138 38L14.2 35.8V33.1L14.5138 29.1778L15.2462 26.3143L15.9785 24.1016L17.3385 22.8L19.1692 24.7524L21 26.7048L20.1631 30.4794L18.8031 33.473L17.6523 36.0111L16.3 38.3Z" fill="#664D4D"/>
<path d="M21 26.7048C20.4142 27.3295 19.1518 31.0434 18.5938 32.8222L17.6523 36.0111M21 26.7048L19.1692 24.7524L17.3385 22.8L15.9785 24.1016L15.2462 26.3143L14.5138 29.1778M21 26.7048L20.1631 30.4794L18.8031 33.473L17.6523 36.0111M17.6523 36.0111L16.3 38.3L14.5138 38L14.2 35.8M14.2 35.8V33.1L14.5138 29.1778M14.2 35.8L14.5138 29.1778" stroke="#664D4D"/>
<path d="M44.3979 6.2C16.7656 6.2 20.9972 15.9405 15.7105 23.7185L37.1217 27.3852L64.8558 24.1259C66.1664 23.3111 65.5447 6.2 44.3979 6.2Z" fill="#AF459E" stroke="#AF459E"/>
<path d="M64.3461 24.63C64.0437 24.761 63.6561 24.9101 63.1839 25.0739C61.325 25.7188 58.3699 26.521 54.8758 27.2965C47.8831 28.8487 38.8162 30.2755 32.1718 30.1349C25.9833 30.0039 20.7901 28.1964 17.7298 26.4397C16.9661 26.0013 16.343 25.5705 15.8737 25.1757C15.3968 24.7746 15.1078 24.4346 14.9761 24.1849C14.9112 24.0618 14.9001 23.9898 14.9 23.9617C14.9 23.9593 14.9001 23.9573 14.9001 23.9557C14.9341 23.922 15.1161 23.8111 15.6602 23.8111C17.5378 23.8111 20.2903 24.1874 23.6033 24.6402C24.2709 24.7314 24.9612 24.8258 25.6718 24.9208C29.8821 25.4838 34.7515 26.0613 39.6293 26.1063C45.0516 26.1563 50.5963 25.6437 55.1972 25.2041C55.3498 25.1896 55.5013 25.1751 55.6517 25.1607C57.774 24.9577 59.6775 24.7756 61.2669 24.677C62.5345 24.5984 63.5714 24.5755 64.3461 24.63Z" fill="#C26CB5" stroke="#C26CB4"/>
<path d="M36.9 39.9C36.9 42.4957 33.648 43.4 30.5 43.4C27.352 43.4 25.2 41.0957 25.2 38.5C25.2 35.9043 28.252 34 31.4 34C36 34.3 36.9 37.3043 36.9 39.9Z" fill="white"/>
<path d="M28.2 39.2896C28.2 41.094 30.5423 42.2616 30.9885 41.9432C31.5462 42.2616 34 41.2241 34 39.2896C34 37.3551 33.0213 35.6 30.9885 35.6C28.9556 35.6 28.2 38.0158 28.2 39.2896Z" fill="black"/>
<path d="M43.8 39.9C43.8 42.4957 47.052 43.4 50.2 43.4C53.348 43.4 55.5 41.0957 55.5 38.5C55.5 35.9043 52.448 34 49.3 34C44.7 34.3 43.8 37.3043 43.8 39.9Z" fill="white"/>
<path d="M43.8 39.9C43.8 42.4957 47.052 43.4 50.2 43.4C53.348 43.4 55.5 41.0957 55.5 38.5C55.5 35.9043 52.448 34 49.3 34C44.7 34.3 43.8 37.3043 43.8 39.9Z" fill="white"/>
<path d="M52.3 39.2896C52.3 41.094 49.9577 42.2616 49.5115 41.9432C48.9538 42.2616 46.5 41.2241 46.5 39.2896C46.5 37.3551 47.4787 35.6 49.5115 35.6C51.5444 35.6 52.3 38.0158 52.3 39.2896Z" fill="black"/>
<path d="M45.2561 31.5C45.4819 32.2675 48.5561 32.3 50.5561 32.3C54.2561 32.3 55.4561 32.8807 55.4561 31.5C55.4561 30.1193 53.428 29.8 50.5561 29.8C47.6843 29.8 44.7561 29.8 45.2561 31.5Z" fill="#664D4D"/>
<path d="M35.8 31.5C35.5743 32.2675 32.5 32.3 30.5 32.3C26.8 32.3 25.6 32.8807 25.6 31.5C25.6 30.1193 27.6281 29.8 30.5 29.8C33.3719 29.8 36.3 29.8 35.8 31.5Z" fill="#664D4D"/>
<path d="M35.8 48.8C35.8 48.8 39.5 54.6 45.1693 48.8" stroke="black" stroke-linecap="round"/>
<path d="M39.0255 43.513C39.0255 44.1277 38.7711 45.739 39.8686 45.739C41.1934 46.1775 43 44.1277 43 43.513C43 42.8983 42.1103 42.4 41.0128 42.4C39.9152 42.4 39.0255 42.8983 39.0255 43.513Z" fill="#D9A28C"/>
</svg>
