<svg width="80" height="80" viewBox="0 0 80 80" fill="none" xmlns="http://www.w3.org/2000/svg">
<circle cx="40" cy="40" r="40" fill="#16A8F0" fill-opacity="0.1"/>
<path d="M29.0691 48.8889H49.3693L66.1111 68.9438C66.1111 68.9438 53.223 76.6046 41.6667 76.6667C29.6943 76.731 14.4444 68.9438 14.4444 68.9438L29.0691 48.8889Z" fill="#F03131"/>
<path d="M41.2312 68.018C42.5249 68.018 43.5736 66.9693 43.5736 65.6757C43.5736 64.382 42.5249 63.3333 41.2312 63.3333C39.9376 63.3333 38.8889 64.382 38.8889 65.6757C38.8889 66.9693 39.9376 68.018 41.2312 68.018Z" fill="white"/>
<path d="M41.2312 74.6847C42.5249 74.6847 43.5736 73.636 43.5736 72.3423C43.5736 71.0487 42.5249 70 41.2312 70C39.9376 70 38.8889 71.0487 38.8889 72.3423C38.8889 73.636 39.9376 74.6847 41.2312 74.6847Z" fill="white"/>
<path d="M65.5256 39.2492C65.5256 59.0851 55.9009 59.5496 42.1021 59.5496C28.3032 59.5496 15.5556 59.0851 15.5556 39.2492C15.5556 19.4135 26.2011 14.4445 40 14.4445C53.7988 14.4445 65.5256 19.4135 65.5256 39.2492Z" fill="#ECB9A5"/>
<path d="M35.8559 51.6515C35.8559 51.6515 41.3213 54.7746 45.2252 51.6515" stroke="black" stroke-linecap="round"/>
<path d="M32.9129 43.6036C36.3626 43.6036 39.1592 40.8071 39.1592 37.3574C39.1592 33.9077 36.3626 31.1111 32.9129 31.1111C29.4632 31.1111 26.6667 33.9077 26.6667 37.3574C26.6667 40.8071 29.4632 43.6036 32.9129 43.6036Z" fill="white"/>
<path d="M46.9669 43.6036C50.4166 43.6036 53.2132 40.8071 53.2132 37.3574C53.2132 33.9077 50.4166 31.1111 46.9669 31.1111C43.5172 31.1111 40.7207 33.9077 40.7207 37.3574C40.7207 40.8071 43.5172 43.6036 46.9669 43.6036Z" fill="white"/>
<path d="M33.1231 40.6907C34.848 40.6907 36.2462 39.2924 36.2462 37.5676C36.2462 35.8427 34.848 34.4445 33.1231 34.4445C31.3983 34.4445 30 35.8427 30 37.5676C30 39.2924 31.3983 40.6907 33.1231 40.6907Z" fill="black"/>
<path d="M47.1772 40.6907C48.9021 40.6907 50.3003 39.2924 50.3003 37.5676C50.3003 35.8427 48.9021 34.4445 47.1772 34.4445C45.4524 34.4445 44.0541 35.8427 44.0541 37.5676C44.0541 39.2924 45.4524 40.6907 47.1772 40.6907Z" fill="black"/>
<path d="M65.0516 32.5C56.5516 23.5961 52.2025 22.5 39.5 22.5C26.7975 22.5 26 24.0961 15 32.5C15 24.2688 26.7975 9 39.5 9C52.2025 9 65.0516 24.2688 65.0516 32.5Z" fill="#B9BC0E"/>
<path d="M33.9484 3L40.8002 5.11764L46.9996 3.63529C46.9996 3.63529 51.7663 3.52829 49.2835 7.23068C46.6139 11.2116 47.4898 7.23068 40.8002 7.23068C34.1107 7.23068 34.3939 10.771 31.6644 6.80715C29.3157 3.39617 33.9484 3 33.9484 3Z" fill="#FF3030"/>
<rect x="40" y="6" width="1" height="5" fill="#6D6767"/>
</svg>
