<svg width="80" height="80" viewBox="0 0 80 80" fill="none" xmlns="http://www.w3.org/2000/svg">
<circle cx="40" cy="40" r="40" fill="#6D6BDA" fill-opacity="0.09"/>
<path d="M26.5 54H52.5L62 69H17L26.5 54Z" fill="white"/>
<path d="M32.9484 58L39.8002 60.1176L45.9996 58.6353C45.9996 58.6353 50.7663 58.5283 48.2835 62.2307C45.6139 66.2116 46.4898 62.2307 39.8002 62.2307C33.1107 62.2307 33.3939 65.771 30.6644 61.8072C28.3157 58.3962 32.9484 58 32.9484 58Z" fill="#664D4D"/>
<path d="M65.1919 37.5824C65.1919 57.4182 55.5673 57.8826 41.7686 57.8826C27.9698 57.8826 15.2222 57.4182 15.2222 37.5824C15.2222 17.7467 25.8677 12.7777 39.6665 12.7777C53.4652 12.7777 65.1919 17.7467 65.1919 37.5824Z" fill="#ECB9A5"/>
<path d="M35.5224 49.9845C35.5224 49.9845 40.9878 53.1076 44.8917 49.9845" stroke="black" stroke-linecap="round"/>
<path d="M32.5795 41.9367C36.0291 41.9367 38.8257 39.1402 38.8257 35.6905C38.8257 32.2408 36.0291 29.4443 32.5795 29.4443C29.1298 29.4443 26.3333 32.2408 26.3333 35.6905C26.3333 39.1402 29.1298 41.9367 32.5795 41.9367Z" fill="white"/>
<path d="M46.6334 41.9367C50.083 41.9367 52.8796 39.1402 52.8796 35.6905C52.8796 32.2408 50.083 29.4443 46.6334 29.4443C43.1837 29.4443 40.3872 32.2408 40.3872 35.6905C40.3872 39.1402 43.1837 41.9367 46.6334 41.9367Z" fill="white"/>
<path d="M32.7897 39.0238C34.5145 39.0238 35.9128 37.6256 35.9128 35.9007C35.9128 34.1759 34.5145 32.7776 32.7897 32.7776C31.0648 32.7776 29.6666 34.1759 29.6666 35.9007C29.6666 37.6256 31.0648 39.0238 32.7897 39.0238Z" fill="black"/>
<path d="M46.8437 39.0238C48.5686 39.0238 49.9668 37.6256 49.9668 35.9007C49.9668 34.1759 48.5686 32.7776 46.8437 32.7776C45.1189 32.7776 43.7206 34.1759 43.7206 35.9007C43.7206 37.6256 45.1189 39.0238 46.8437 39.0238Z" fill="black"/>
<path d="M21.3075 10.4402C27.8457 5.34363 35.1441 15.027 40.712 10.4402C46.28 5.85328 54.5269 5.85328 60.1166 10.4402C65.7063 15.027 64.9677 35.4131 64.9677 35.4131C64.9677 35.4131 53.4511 20.555 43.1376 19.6139C29.8399 18.4005 15.001 40 15.001 40C15.001 40 14.7693 15.5367 21.3075 10.4402Z" fill="#3F3B3B"/>
</svg>
