<svg width="80" height="80" viewBox="0 0 80 80" fill="none" xmlns="http://www.w3.org/2000/svg">
<path d="M28.2347 48.7858L49.051 48.8103L65.6 70.1C65.6 70.1 57.8 80.1 40.5 79.3C23.5 79.3 13.6 70.1 13.6 70.1L28.2347 48.7858Z" fill="#E33159"/>
<path d="M40.6572 68.7773C41.9803 68.7789 43.0542 67.69 43.0558 66.3453C43.0574 65.0006 41.9861 63.9092 40.6629 63.9076C39.3398 63.9061 38.2659 64.9949 38.2644 66.3396C38.2628 67.6844 39.3341 68.7757 40.6572 68.7773Z" fill="white"/>
<path d="M40.649 75.7072C41.9721 75.7088 43.046 74.62 43.0476 73.2752C43.0492 71.9305 41.9779 70.8391 40.6548 70.8376C39.3316 70.836 38.2578 71.9249 38.2562 73.2696C38.2546 74.6143 39.3259 75.7057 40.649 75.7072Z" fill="white"/>
<path d="M20.9235 44.1205C20.8741 44.1633 20.8035 44.2694 20.7147 44.4269L19.8323 45.7224L19.5494 45.7224L18.7189 46.3L15.3117 52.6153L13.8795 53.9908L12.9 54.4L11.9 54.4L10.3 54.4L9.7 54.2099L11.1 54.9975L12.3795 55.4L13.8795 55.8L16.0054 55.6204L19.5494 54.9975L22.0979 54.2099L24.3288 53.4593L26.7203 51.8257L29.681 49.5369L31.7614 46.8143L32.5682 44.2399L32.5793 41.9592L32.0524 39.8083L30.6989 37.6864L29.2497 37.1177L26.6745 38.7582L24.0022 41.1475L22.6096 42.6504L20.9235 44.1205Z" fill="#DB9731"/>
<path d="M20.9235 44.1205C20.4003 44.5741 17.4951 52.1274 15.9198 52.6848L13.8795 53.9908M20.9235 44.1205L22.6096 42.6504L24.0022 41.1475L26.6745 38.7582L29.2497 37.1177L30.6989 37.6864L32.0524 39.8083L32.5793 41.9592L32.5682 44.2399L31.7614 46.8143L29.681 49.5369L26.7203 51.8257L24.3288 53.4593L22.0979 54.2099L19.5494 54.9975M20.9235 44.1205L19.8323 45.7224L18.7189 45.7224L19.5494 45.7224L18.7189 46.3L15.3117 52.6153L13.8795 53.9908M13.8795 53.9908L12.9 54.4L11.9 54.4L10.3 54.4L9.7 54.2099L11.1 54.9975L12.3795 55.4M12.3795 55.4L19.5494 54.9975M12.3795 55.4L13.8795 55.8L16.0054 55.6204L19.5494 54.9975" stroke="#DB9731"/>
<path d="M60.6 40.7C60.6 42.5225 60.1775 47.3 62 47.3C64.2 48.6 67.2 42.5225 67.2 40.7C67.2 38.8775 65.7225 37.4 63.9 37.4C62.0775 37.4 60.6 38.8775 60.6 40.7Z" fill="#D9A28C"/>
<path d="M19.6 40.7C19.6 42.5225 20.0225 47.3 18.2 47.3C16 48.6 13 42.5225 13 40.7C13 38.8775 14.4775 37.4 16.3 37.4C18.1225 37.4 19.6 38.8775 19.6 40.7Z" fill="#D9A28C"/>
<ellipse cx="40.1" cy="38.3" rx="23.7" ry="22.7" fill="#ECB9A5"/>
<path d="M39.8752 16.071C39.8111 16.0835 39.6836 16.0735 39.5042 16.0459L37.9357 15.9399L35.5535 15.4928L33.2356 14.8839L31.4178 14.9164L29.6962 15.2376L27.7295 15.5153L24.7506 16.1709L26.0031 14.5904L27.725 12.8317L30.377 10.4244L32.5547 8.90339L34.5096 7.6098L37.2655 6.73591L40.8894 5.81884L44.3232 5.86391L46.8642 6.82088L48.6872 8.2231L50.0796 9.96915L50.946 12.3484L50.5173 13.8423L47.6442 14.8566L44.1157 15.4843L42.0717 15.6518L39.8752 16.071Z" fill="#DB9731"/>
<path d="M39.8752 16.071C39.1956 16.2027 31.4131 13.8189 30.0108 14.7154L27.7295 15.5153M39.8752 16.071L42.0717 15.6518L44.1157 15.4843L47.6442 14.8566L50.5173 13.8423L50.946 12.3484L50.0796 9.96915L48.6872 8.2231L46.8642 6.82088L44.3232 5.86391L40.8894 5.81884L37.2655 6.73591L34.5096 7.6098L32.5547 8.90339L30.377 10.4244M39.8752 16.071L37.9357 15.9399L35.5535 15.4928L33.2356 14.8839L31.4178 14.9164L29.6962 15.2376L27.7295 15.5153M27.7295 15.5153L24.7506 16.1709L26.0031 14.5904M26.0031 14.5904L27.725 12.8317L30.377 10.4244M26.0031 14.5904L30.377 10.4244" stroke="#DB9731"/>
<path d="M32.1 25.7143C32.0447 25.7733 31.8987 25.8633 31.6791 25.9794L29.9 27.1L26.9 28.5778L23.8 29.8794L21.9 31.3L20.4031 32.873L18.6 34.6L16.1139 37.4L15.8 35.2V32.5L16.1139 28.5778L16.8462 25.7143L17.5785 23.2L19.6 20.4L22.5 16.9L26.2 14.3L29.9 13.1L33.3 12.8L36.6 13.1L40 14.3L41.1 15.8L39.1 18.8L36 22L34 23.7L32.1 25.7143Z" fill="#DB9731"/>
<path d="M32.1 25.7143C31.5142 26.3391 20.7518 30.4434 20.1939 32.2222L18.6 34.6M32.1 25.7143L34 23.7L36 22L39.1 18.8L41.1 15.8L40 14.3L36.6 13.1L33.3 12.8L29.9 13.1L26.2 14.3L22.5 16.9L19.6 20.4L17.5785 23.2L16.8462 25.7143L16.1139 28.5778M32.1 25.7143L29.9 27.1L26.9 28.5778L23.8 29.8794L21.9 31.3L20.4031 32.873L18.6 34.6M18.6 34.6L16.1139 37.4L15.8 35.2M15.8 35.2V32.5L16.1139 28.5778M15.8 35.2L16.1139 28.5778" stroke="#DB9731"/>
<path d="M49.3 25.8143C49.3553 25.8733 49.5014 25.9633 49.7209 26.0794L51.5 27.2L54.5 28.6778L57.6 29.9794L59.5 31.4L60.997 32.973L63.2 36.3L63.8216 37.7H65.2862L65.6 35.3V32.6L65.2862 28.6778L64.5539 25.8143L63.8216 23.3L61.8 20.5L58.9 17L55.2 14.4L51.5 13.2L48.1 12.9L44.8 13.2L41.4 14.4L40.3 15.9L42.3 18.9L45.4 22.1L47.4 23.8L49.3 25.8143Z" fill="#DB9731"/>
<path d="M49.3 25.8143C49.8859 26.439 60.6482 30.5434 61.2062 32.3222L63.2 36.3M49.3 25.8143L47.4 23.8L45.4 22.1L42.3 18.9L40.3 15.9L41.4 14.4L44.8 13.2L48.1 12.9L51.5 13.2L55.2 14.4L58.9 17L61.8 20.5L63.8216 23.3L64.5539 25.8143L65.2862 28.6778M49.3 25.8143L51.5 27.2L54.5 28.6778L57.6 29.9794L59.5 31.4L60.997 32.973L63.2 36.3M63.2 36.3L63.8216 37.7H65.2862L65.6 35.3M65.6 35.3V32.6L65.2862 28.6778M65.6 35.3L65.2862 28.6778" stroke="#DB9731"/>
<path d="M34.1263 10.2L40.9267 12.3018L47.0796 10.8305C47.0796 10.8305 50.3412 10.0879 49.3464 14.3989C48.7 17.2 47.0796 15.1 40.9267 15.1C34.0794 15.1 34.1263 18.6 31.8595 13.9786C30.0493 10.2883 34.1263 10.2 34.1263 10.2Z" fill="#E33159"/>
<path d="M42.1001 12.7C41.8001 15.3 41.2556 15.1 40.7034 15.1C40.0034 15.1 39.7 15.5 39.4034 13C39.2251 11.4977 40.1511 12.2 40.7034 12.2C41.2556 12.2 41.6001 11.9 42.1001 12.7Z" fill="#B32424"/>
<path d="M36.9 39.9C36.9 42.4957 33.648 43.4 30.5 43.4C27.352 43.4 24.9 40.8 24.1 38.9C23.3 37.2 25.2 34.6 30.8 34.2C35.4 34.5 36.9 37.3043 36.9 39.9Z" fill="white"/>
<path d="M56.1747 37.7C56.1747 35.1043 52.9227 34.2 49.7747 34.2C46.6266 34.2 44.1747 36.8 43.3747 38.7C42.5747 40.4 44.4747 43 50.0747 43.4C54.6747 43.1 56.1747 40.2958 56.1747 37.7Z" fill="white"/>
<path d="M28.2 39.2896C28.2 41.094 30.5423 42.2616 30.9884 41.9431C31.5461 42.2616 34 41.2241 34 39.2896C34 37.355 33.0213 35.6 30.9884 35.6C28.9556 35.6 28.2 38.0158 28.2 39.2896Z" fill="black"/>
<path d="M24.4474 36.7526C24.4474 36.4699 23.841 37.0303 23.2104 37.0303C22.4005 37.0303 21.534 36.4303 21.604 36.7483C22.0671 37.1874 22.2105 37.2874 23.2105 37.4874C23.6027 37.5659 24.4474 37.3889 24.4474 36.7526Z" fill="#7B5214"/>
<path d="M24.8636 36.2973C24.8636 36.0146 24.5007 36.575 23.8701 36.575C23.0602 36.575 22.1937 35.975 22.2636 36.293C22.7267 36.7321 22.6267 36.8321 23.6267 37.0321C24.019 37.1106 24.8636 36.9336 24.8636 36.2973Z" fill="#7B5214"/>
<path d="M56.0163 36.7526C56.0163 36.4699 56.6227 37.0303 57.2532 37.0303C58.0631 37.0303 58.9297 36.4303 58.8597 36.7483C58.3966 37.1874 58.2532 37.2874 57.2532 37.4874C56.861 37.5659 56.0163 37.3889 56.0163 36.7526Z" fill="#7B5214"/>
<path d="M55.6 36.2973C55.6 36.0146 55.963 36.575 56.5936 36.575C57.4035 36.575 58.27 35.975 58.2 36.293C57.7369 36.7321 57.8369 36.8321 56.8369 37.0321C56.4447 37.1106 55.6 36.9336 55.6 36.2973Z" fill="#7B5214"/>
<path d="M52.3 39.2896C52.3 41.094 49.9577 42.2616 49.5115 41.9431C48.9538 42.2616 46.5 41.2241 46.5 39.2896C46.5 37.355 47.4787 35.6 49.5115 35.6C51.5444 35.6 52.3 38.0158 52.3 39.2896Z" fill="black"/>
<path d="M45.6 31.5C45.6 31.9 48.1814 31.5062 50.5626 31.5062C53.6212 31.5062 55.0626 32.2 55.4187 31.5062C55.0626 30.9 53.7345 30.4 50.8626 30.4C47.9907 30.4 45.6 30.6 45.6 31.5Z" fill="#DB9731"/>
<path d="M35.8187 31.5C35.8187 31.9 33.2373 31.5062 30.8561 31.5062C27.7975 31.5062 26.3561 32.2 26 31.5062C26.3561 30.9 27.6842 30.4 30.5561 30.4C33.428 30.4 35.8187 30.6 35.8187 31.5Z" fill="#DB9731"/>
<path d="M35.8 48.8C35.8 48.8 39.7 51.6 45.1693 48.8" stroke="black" stroke-linecap="round"/>
<path d="M39.2191 44.0547C39.2191 44.4163 39.0283 45.3641 39.8514 45.3641C40.8451 45.6221 42.2 44.4163 42.2 44.0547C42.2 43.6931 41.5327 43.4 40.7096 43.4C39.8864 43.4 39.2191 43.6931 39.2191 44.0547Z" fill="#D9A28C"/>
</svg>
